<svg width="66" height="88" viewBox="0 0 66 88" fill="none" xmlns="http://www.w3.org/2000/svg">
<path d="M33 0C14.7758 0 0 14.7758 0 33C0 40.1761 2.35263 46.761 6.26313 52.1538C6.33325 52.283 6.34425 52.4274 6.424 52.5511L28.424 85.5511C29.4443 87.0815 31.163 88 33 88C34.837 88 36.5557 87.0815 37.576 85.5511L59.576 52.5511C59.6571 52.4274 59.6667 52.283 59.7369 52.1538C63.6474 46.761 66 40.1761 66 33C66 14.7758 51.2243 0 33 0ZM33 44C26.9252 44 22 39.0747 22 33C22 26.9252 26.9252 22 33 22C39.0747 22 44 26.9252 44 33C44 39.0747 39.0747 44 33 44Z" fill="white"/>
</svg>
