<svg width="121" height="121" viewBox="0 0 121 121" fill="none" xmlns="http://www.w3.org/2000/svg">
<path d="M37.7818 108.969C38.5905 109.84 38.543 111.22 37.6737 112.03L32.9772 116.422C32.108 117.233 30.735 117.185 29.9263 116.312L2.57552 86.8356C1.76682 85.9642 1.81655 84.5868 2.68579 83.7738L7.38876 79.3887C8.258 78.5757 9.63105 78.6254 10.4397 79.499L37.7818 108.969ZM72.6811 53.5062C73.4898 54.3776 73.4401 55.7571 72.5708 56.568L43.0124 84.1803C42.1432 84.9912 40.7701 84.9436 39.9614 84.07L32.9059 76.4566C32.0972 75.5852 32.1469 74.2057 33.0162 73.3949L62.5681 45.7825C63.4352 44.9717 64.8082 45.0192 65.6169 45.8928L72.6811 53.5062ZM47.8386 99.5693C48.6473 100.441 48.5976 101.818 47.7283 102.631L43.0254 107.02C42.1561 107.834 40.7831 107.784 39.9744 106.91L12.6388 77.434C11.8301 76.5626 11.8777 75.1831 12.7469 74.3722L17.4412 69.9849C18.3105 69.1741 19.6835 69.2216 20.4922 70.0952L47.8386 99.5693ZM93.3828 54.5635C94.1915 55.4349 94.1418 56.8145 93.2704 57.6253L88.5696 62.0148C87.7003 62.8256 86.3273 62.778 85.5164 61.9066L58.1765 32.4369C57.3657 31.5655 57.4154 30.1881 58.2846 29.3751L62.9984 24.9749C63.8655 24.164 65.2385 24.2116 66.0472 25.0851L93.3828 54.5635ZM103.424 45.1792C104.233 46.0506 104.183 47.4302 103.314 48.2432L98.622 52.6305C97.755 53.4435 96.3819 53.3937 95.5732 52.5223L68.2376 23.0396C67.4289 22.1682 67.4765 20.7887 68.3457 19.9757L73.0422 15.5798C73.9093 14.7667 75.2802 14.8143 76.0889 15.6879L103.424 45.1792Z" fill="#CD1C1C"/>
</svg>
