<svg width="74" height="62" viewBox="0 0 74 62" fill="none" xmlns="http://www.w3.org/2000/svg">
<path d="M17.2681 0.166504C7.78527 0.166504 9.15527e-05 7.95362 9.15527e-05 17.4316V44.5681C9.15527e-05 54.0461 7.78527 61.8333 17.2681 61.8333H56.7319C66.2147 61.8333 74.0001 54.0461 74.0001 44.5681V17.4316C74.0001 7.95362 66.2147 0.166504 56.7319 0.166504H17.2681ZM17.2681 10.0301H56.7319C60.9144 10.0301 64.1303 13.2443 64.1303 17.4316V44.5681C64.1303 48.7555 60.9144 51.9696 56.7319 51.9696H17.2681C13.0855 51.9696 9.86966 48.7555 9.86966 44.5681V17.4316C9.86966 13.2443 13.0855 10.0301 17.2681 10.0301Z" fill="white"/>
<path d="M9.63353 5.10682C8.98618 5.13742 8.35121 5.29515 7.76486 5.57101C7.17852 5.84687 6.65228 6.23544 6.2162 6.71456C5.33553 7.68214 4.87554 8.95973 4.93741 10.2663C4.99928 11.5728 5.57794 12.8013 6.5461 13.6814L33.6793 38.3482C34.5878 39.1741 35.7719 39.6317 37 39.6317C38.2281 39.6317 39.4121 39.1741 40.3207 38.3482L67.4539 13.6814C68.422 12.8013 69.0007 11.5728 69.0626 10.2663C69.1244 8.95973 68.6644 7.68214 67.7838 6.71456C66.9031 5.74701 65.6738 5.16874 64.3665 5.10695C63.0592 5.04516 61.7808 5.50492 60.8127 6.38508L37.0001 28.0328L13.1873 6.38508C12.2192 5.50489 10.9408 5.04509 9.63353 5.10682Z" fill="white"/>
<path d="M50.782 33.384L45.4181 38.4822L60.7708 54.6159L66.1348 49.5178L50.782 33.384Z" fill="white"/>
<path d="M23.1979 33.4053L7.84514 49.7972L13.2492 54.8527L28.602 38.4608L23.1979 33.4053Z" fill="white"/>
</svg>
