<svg width="83" height="83" viewBox="0 0 83 83" fill="none" xmlns="http://www.w3.org/2000/svg">
<path fill-rule="evenodd" clip-rule="evenodd" d="M28.7466 54.2534C38.5015 64.0088 47.562 69.4472 54.3042 72.4675C60.1895 75.104 67.1371 73.0365 72.5536 67.6199L73.7938 66.3797L58.9123 56.9097C56.0818 61.0368 50.7342 63.4533 45.3951 61.1993C41.3488 59.4915 35.9979 56.5747 31.2118 51.7882C26.4255 47.002 23.5086 41.6511 21.8006 37.6053C19.5469 32.266 21.9635 26.9182 26.0903 24.0876L16.6203 9.20628L15.38 10.4466C9.96353 15.8631 7.89619 22.8105 10.5327 28.696C13.5528 35.4384 18.9915 44.4985 28.7466 54.2534ZM50.8634 80.1486C43.2266 76.728 33.3059 70.7156 22.7951 60.2048C12.2845 49.6945 6.27228 39.7734 2.85145 32.1369C-1.6755 22.031 2.45477 11.4688 9.42857 4.49505L10.6688 3.25477C14.4763 -0.552678 20.8303 0.144811 23.7211 4.68758L35.6339 23.4074C36.2736 24.4126 36.4571 25.6418 36.1389 26.7901C35.8208 27.9383 35.0313 28.898 33.9653 29.4308L31.2986 30.7642C29.4814 31.6728 29.1085 33.2747 29.5548 34.332C30.9809 37.7105 33.3652 42.0387 37.1632 45.8368C40.9617 49.6352 45.2895 52.0192 48.6679 53.4454C49.7255 53.8915 51.3272 53.5186 52.2358 51.7015L53.5694 49.0347C54.1022 47.9691 55.0617 47.1792 56.2101 46.8611C57.3582 46.5429 58.5874 46.7268 59.5928 47.3665L78.3127 59.279C82.8552 62.1697 83.5529 68.5239 79.7452 72.3312L78.505 73.5714C71.5314 80.5454 60.9689 84.6755 50.8634 80.1486Z" fill="white"/>
</svg>
